<svg xmlns="http://www.w3.org/2000/svg" viewBox="0 0 254.15 576"><defs><style>.cls-1{fill:#fff;}.cls-2{fill:#c8102e;}.cls-3{fill:#1d428a;}</style></defs><title>NBA Logo</title><g id="Layer_2"><g id="Layer_1-2"><path class="cls-1" d="M105.13,388.37,194.49,0H59.62A59.68,59.68,0,0,0,0,59.62V516.3A59.72,59.72,0,0,0,59.62,576H194.39a59.84,59.84,0,0,0,59.75-59.7V59.62A59.73,59.73,0,0,0,194.49,0"/><path class="cls-2" d="M161,105.59l.14,1.95c4.11,2.4,6.2,4.35,10.34,7,11,6.92,24.55,19.23,22.84,61.63,3.08,9.25,4.45,27.42,7.29,33.25,5.73,11.36,9.55,18.75,11.22,29.47,0,0,1.65,16.69,3.81,17.9,11.37,2.57,8.09,3.69,9.75,5.64,1.76,2.28,8.33,2.18,8.33,8.3a39.88,39.88,0,0,1,5.25,9.51V59.62a45.6,45.6,0,0,0-45.52-45.56H150.91c7,2.48,10.95,5.42,13.26,10.08,5.63.48,12.32,13.09,1.9,31.72,4.62,3.07,1,7.67-2.3,13-1,1.71-2,4.75-5.11,4.54-4,8.32-8.74,16.39-12.35,16.9-1.09,1.35-1.89,4.93-.24,6.61,5.3,2.38,11.77,5.64,15,8.67"/><path class="cls-2" d="M240,310.15A40.67,40.67,0,1,1,192.6,255.6c-4.69-11.72-14.57-30.72-17.51-37-2.78-6.19-9.48-44.83-10.92-52.47-.33-1.67-17.53,10-17.56,10.7-1,1-12.91,32.05-13.41,33.73a48,48,0,0,0-.27,5.21s5.85.72,9.22,10.93,13.5,47.42,13.5,47.42-2.75,2.85-2.87,2.67c12.83,43,8.35,61.46,14.11,74.06,7.24,17.76,9.19,15.43,15.4,30.36,4.46,10.87,9.42,53.66,11.08,55.55C200.3,445.6,204,452.47,204,457.43s-5.87,19.72-3.73,28.3c1.3,5,2,16.37,4.33,18.52,0,0,2.16,4.25,1.1,6.13-.31.65-.92,1.64-.64,2.42,3.82,13.5,16.16,36.5-3.82,48.55h.43A45.28,45.28,0,0,0,240,516.3Z"/><path class="cls-3" d="M188.69,507.55c-7.32-6.54-2.43-9.3-2.72-11.88-4.83-19.95-20.68-32-12.48-38.6-2-6.59-6.14-14.86-6-14.85C142.81,428,121.78,405,118.21,401.63c-4.33-4.71-11.71-9.43-13.09-13.26-5.93-5.45-35-46.74-41.82-61.94l-11.81-1.67c-5.37-22-23.31-40.35-23.76-62.36-.17-8.32,3.77-26.15,5.24-29.7s8.31-9.53,8.31-9.53v-5.89c-25.77.73-18.36-1.9-22.8-11.92-3.12-6.94-.88-8.46.24-13.27C22.17,177.89,33.65,156,38.4,146c1.45-5,6.42-17.13,6.42-17.13C64,89.8,71.2,92.67,94,90.47l1.12-1.62c22.86-1,19.11-2.71,22.34-24.73-3.33,1.43-4.32-6.89-4.32-6.89-1.82-12.53,3.46-10.16,6-10.41.54-20.6,2.65-27.09,17.51-32.76h-77A45.59,45.59,0,0,0,14.06,59.64V516.3a45.59,45.59,0,0,0,45.59,45.62H194.49C179.05,553.57,188.17,537.69,188.69,507.55Z"/><path class="cls-1" d="M85.15,533.21V450.53h16c9.28,0,15,5,15,16.56v12.27c0,7.52-2.29,11.35-5.51,13.2,3.21,2.2,5.51,5.91,5.51,12.16v12c0,11.35-6.08,16.44-15,16.44Zm11-35.9v25.48h4.24c3.78,0,4.81-2,4.81-5.91v-14c0-4.06-1.26-5.56-4.93-5.56Zm0-36.36v27.33h4.12c3.9,0,4.93-1.4,4.93-5.91V466.52c0-3.83-1.15-5.56-4.81-5.56Zm45.95,55.47h-10l-1.38,16.79H119.64l10-82.68h15.81L155,533.21H143.47Zm-4.93-56.62h-.57c-.69,10-2.06,27.44-2.52,33L132.82,507h8.59l-1.26-14.24c-.46-5.67-2.06-22.93-3-33M52.38,533.21H42.76V450.53H58l12.26,67.74c-1-16.21-2.41-35.78-2.41-52.46V450.53h9.63v82.68h-14L51.24,467c.8,15.29,1.14,27.45,1.14,40.19Z"/></g></g></svg>